<svg xmlns="http://www.w3.org/2000/svg" version="1.1" xmlns:xlink="http://www.w3.org/1999/xlink" xmlns:svgjs="http://svgjs.dev/svgjs" width="2000" height="1500" viewBox="0 0 2000 1500"><rect width="2000" height="1500" fill="none"></rect><g transform="matrix(0.75,0,0,0.75,249.090909090909,303.63117835721573)"><svg viewBox="0 0 396 236" data-background-color="#ffffff" preserveAspectRatio="xMidYMid meet" height="1191" width="2000" xmlns="http://www.w3.org/2000/svg" xmlns:xlink="http://www.w3.org/1999/xlink"><g id="tight-bounds" transform="matrix(1,0,0,1,0.2400000000000091,-0.0676832827348619)"><svg viewBox="0 0 395.52 236.13536656546972" height="236.13536656546972" width="395.52"><g><svg viewBox="0 0 395.52 236.13536656546972" height="236.13536656546972" width="395.52"><g><svg viewBox="0 0 395.52 236.13536656546972" height="236.13536656546972" width="395.52"><g transform="matrix(1,0,0,1,0,175.6963553295147)"><svg viewBox="0 0 395.52 60.43901123595504" height="60.43901123595504" width="395.52"><g id="textblocktransform"><svg viewBox="0 0 395.52 60.43901123595504" height="60.43901123595504" width="395.52" id="textblock"><g><svg viewBox="0 0 395.52 60.43901123595504" height="60.43901123595504" width="395.52"><g transform="matrix(1,0,0,1,0,0)"><svg width="395.52" viewBox="1.65 -33.5 222.48 34" height="60.43901123595504" data-palette-color="#010c80"><path d="M12.45 0L1.65 0 1.65-0.8 4.85-2.45 17.65-33.25 19.9-33.25 32.5-2.6 35.85-0.8 35.85 0 23.45 0 23.45-0.8 27.85-2.5 24.1-11.75 11.95-11.75 8.25-2.5 12.45-0.8 12.45 0ZM18.05-26.8L13.1-14.5 23-14.5 18.05-26.8ZM48.75 0.5L48.75 0.5Q45.8 0.5 43.92-0.98 42.05-2.45 42.05-5.35L42.05-5.35 42.05-20.15 38.9-21.7 38.9-22.5 46.05-22.5 46.05-7.7Q46.05-5.5 47.42-4.35 48.8-3.2 51-3.2L51-3.2Q52.35-3.2 53.97-3.65 55.6-4.1 56.55-4.95L56.55-4.95 56.55-20.15 53-21.7 53-22.5 60.55-22.5 60.55-2.25 64.1-0.8 64.1 0 56.55 0 56.55-3.15 56.3-3.15Q54.4-1.25 52.62-0.38 50.85 0.5 48.75 0.5ZM78.65 0L67.95 0 67.95-0.8 71.09-2.4 71.09-17.3 68.09-19.9 68.09-20.25 74.3-23 74.59-23 75.05-19.3 75.3-19.3Q77.2-21.2 78.97-22.1 80.75-23 82.9-23L82.9-23Q85.84-23 87.72-21.53 89.59-20.05 89.59-17.15L89.59-17.15 89.59-2.4 92.75-0.8 92.75 0 82.05 0 82.05-0.8 85.59-2.4 85.59-14.8Q85.59-17 84.22-18.15 82.84-19.3 80.65-19.3L80.65-19.3Q79.3-19.3 77.67-18.85 76.05-18.4 75.09-17.55L75.09-17.55 75.09-2.4 78.65-0.8 78.65 0ZM105.89 0.5L105.89 0.5Q102.94 0.5 101.07-0.98 99.19-2.45 99.19-5.35L99.19-5.35 99.19-20.15 96.04-21.7 96.04-22.5 103.19-22.5 103.19-7.7Q103.19-5.5 104.57-4.35 105.94-3.2 108.14-3.2L108.14-3.2Q109.49-3.2 111.12-3.65 112.74-4.1 113.69-4.95L113.69-4.95 113.69-20.15 110.14-21.7 110.14-22.5 117.69-22.5 117.69-2.25 121.24-0.8 121.24 0 113.69 0 113.69-3.15 113.44-3.15Q111.54-1.25 109.77-0.38 107.99 0.5 105.89 0.5ZM132.74 0L123.99 0 123.99-0.8 126.69-2.55 133.24-11.15 126.59-20.15 124.24-21.7 124.24-22.5 134.59-22.5 134.59-21.7 131.19-20.2 131.19-19.9 135.84-13.6 139.89-19.6 139.89-19.9 137.04-21.7 137.04-22.5 145.34-22.5 145.34-21.7 142.69-19.95 136.84-12.25 144.14-2.35 146.19-0.8 146.19 0 136.49 0 136.49-0.8 139.54-2.3 139.54-2.6 134.24-9.75 129.64-2.9 129.64-2.6 132.74-0.8 132.74 0ZM180.14 0.5L180.14 0.5Q176.54 0.5 173.51-0.78 170.49-2.05 168.24-4.33 165.99-6.6 164.74-9.7 163.49-12.8 163.49-16.5L163.49-16.5Q163.49-20.2 164.74-23.3 165.99-26.4 168.24-28.68 170.49-30.95 173.51-32.23 176.54-33.5 180.14-33.5L180.14-33.5Q183.74-33.5 186.79-32.23 189.84-30.95 192.09-28.68 194.34-26.4 195.59-23.3 196.84-20.2 196.84-16.5L196.84-16.5Q196.84-12.8 195.59-9.7 194.34-6.6 192.09-4.33 189.84-2.05 186.79-0.78 183.74 0.5 180.14 0.5ZM181.19-2L181.19-2Q184.39-2 186.81-3.6 189.24-5.2 190.61-8.1 191.99-11 191.99-14.95L191.99-14.95Q191.99-19.8 190.29-23.43 188.59-27.05 185.71-29.05 182.84-31.05 179.29-31.05L179.29-31.05Q176.09-31.05 173.61-29.48 171.14-27.9 169.74-25 168.34-22.1 168.34-18.15L168.34-18.15Q168.34-13.3 170.06-9.65 171.79-6 174.69-4 177.59-2 181.19-2ZM213.53 0.5L213.53 0.5Q210.43 0.5 208.28-0.08 206.13-0.65 203.83-1.8L203.83-1.8 203.33-10 204.13-10 206.58-4.7Q208.38-3.2 210.08-2.53 211.78-1.85 213.53-1.85L213.53-1.85Q216.48-1.85 218.16-3.4 219.83-4.95 219.83-7.6L219.83-7.6Q219.83-9.8 218.86-11.05 217.88-12.3 216.06-13.28 214.23-14.25 211.73-15.5L211.73-15.5Q209.38-16.7 207.73-17.85 206.08-19 205.23-20.53 204.38-22.05 204.38-24.35L204.38-24.35Q204.38-26.05 205.21-27.68 206.03-29.3 207.46-30.63 208.88-31.95 210.66-32.73 212.43-33.5 214.33-33.5L214.33-33.5Q216.63-33.5 218.58-32.95 220.53-32.4 222.58-31.4L222.58-31.4 223.08-23.4 222.28-23.4 219.98-28.65Q218.23-29.95 216.93-30.53 215.63-31.1 213.93-31.1L213.93-31.1Q211.73-31.1 210.31-29.6 208.88-28.1 208.88-25.9L208.88-25.9Q208.88-23.35 210.43-21.93 211.98-20.5 215.28-18.9L215.28-18.9Q218.33-17.4 220.28-16.13 222.23-14.85 223.18-13.2 224.13-11.55 224.13-9L224.13-9Q224.13-6.65 223.13-4.88 222.13-3.1 220.56-1.9 218.98-0.7 217.11-0.1 215.23 0.5 213.53 0.5Z" opacity="1" transform="matrix(1,0,0,1,0,0)" fill="#ffffff" class="wordmark-text-0" data-fill-palette-color="primary" id="text-0"></path></svg></g></svg></g></svg></g></svg></g><g transform="matrix(1,0,0,1,124.18002235178197,0)"><svg viewBox="0 0 147.15995529643604 147.15995529643604" height="147.15995529643604" width="147.15995529643604"><g><svg></svg></g><g id="icon-0"><svg viewBox="0 0 147.15995529643604 147.15995529643604" height="147.15995529643604" width="147.15995529643604"><g><path d="M0 73.58c0-40.637 32.943-73.58 73.58-73.58 40.637 0 73.58 32.943 73.58 73.58 0 40.637-32.943 73.58-73.58 73.58-40.637 0-73.58-32.943-73.58-73.58zM73.58 141.709c37.627 0 68.13-30.503 68.13-68.129 0-37.627-30.503-68.13-68.13-68.13-37.627 0-68.13 30.503-68.13 68.13 0 37.627 30.503 68.13 68.13 68.129z" data-fill-palette-color="accent" fill="#ffffff" stroke="transparent"></path><ellipse rx="72.84417787173584" ry="72.84417787173584" cx="73.57997764821802" cy="73.57997764821802" fill="#ffffff" stroke="transparent" stroke-width="0" fill-opacity="1" data-fill-palette-color="accent"></ellipse></g><g transform="matrix(1,0,0,1,30.999380011984293,50.64389348875612)"><svg viewBox="0 0 85.16119527246745 45.8721683189238" height="45.8721683189238" width="85.16119527246745"><g><svg xmlns="http://www.w3.org/2000/svg" xmlns:xlink="http://www.w3.org/1999/xlink" version="1.1" x="0" y="0" viewBox="100.5 107.8 649.4 349.8" style="enable-background:new 0 -142.5 850.4 850.4;" xml:space="preserve" height="45.8721683189238" width="85.16119527246745" class="icon-cg-0" data-fill-palette-color="quaternary" id="cg-0"><polygon points="526.1,152 526.1,201.9 691.5,282.7 526.1,363.6 526.1,413.5 749.9,303.3 749.9,261.5 " fill="#000000" data-fill-palette-color="quaternary"></polygon><polygon points="100.5,303.3 324.3,413.5 324.3,363.6 158.9,282.7 324.3,201.9 324.3,152 100.5,261.5 " fill="#000000" data-fill-palette-color="quaternary"></polygon><polygon points="345.5,457.6 394.8,457.6 504.9,107.8 456,107.8 " fill="#000000" data-fill-palette-color="quaternary"></polygon></svg></g></svg></g></svg></g></svg></g><g></g></svg></g></svg></g><defs></defs></svg><rect width="395.52" height="236.13536656546972" fill="none" stroke="none" visibility="hidden"></rect></g></svg></g></svg>