<svg xmlns="http://www.w3.org/2000/svg" overflow="visible" viewBox="0 0 300.002 95.466"><path fill="#fff" d="M6.737 13.558c-.844-1.286-1.266-2.773-1.266-4.461 0-1.91.604-3.533 1.798-4.864 1.202-1.33 2.935-2 5.195-2 2.046 0 3.78.578 5.201 1.734 1.416 1.156 2.507 2.5 3.26 4.033.753 1.532 1.266 2.96 1.533 4.292.045.182.188.246.435.201.24-.045.363-.156.363-.331l-.266-8.325c0-.493-.357-.89-1.065-1.201-1.156-.487-2.454-.864-3.896-1.13a23.26 23.26 0 0 0-4.227-.403c-2.221 0-4.318.39-6.299 1.17-1.974.772-3.571 1.96-4.792 3.558C1.49 7.435.88 9.363.88 11.629c0 1.819.422 3.41 1.266 4.76.838 1.357 1.87 2.5 3.09 3.435 1.228.929 2.903 2.065 5.033 3.396 2.221 1.377 3.961 2.552 5.228 3.526 1.266.98 2.357 2.215 3.266 3.702.909 1.487 1.363 3.253 1.363 5.292 0 2.578-.688 4.428-2.064 5.565-1.377 1.13-3.11 1.695-5.195 1.695-3.065 0-5.598-1.195-7.591-3.598-2-2.396-3.487-5.24-4.468-8.526-.039-.175-.195-.24-.46-.195-.267.04-.384.15-.338.332l.668 9.525c.091.397.163.676.234.832.065.155.208.298.429.435 1.247.753 2.766 1.35 4.565 1.798 1.798.442 3.584.663 5.363.663 4.26 0 7.637-1.078 10.124-3.228 2.487-2.155 3.727-4.987 3.727-8.493 0-1.955-.461-3.662-1.396-5.13-.935-1.467-2.065-2.701-3.396-3.695-1.331-1-3.13-2.188-5.396-3.565-2.13-1.246-3.819-2.33-5.065-3.266a13.053 13.053 0 0 1-3.13-3.331Zm25.182 29.506c0 .267.065.403.194.403 1.377 0 2.468-.02 3.267-.065l4.46-.071 4.663.071c.714.046 1.734.065 3.065.065.09 0 .136-.136.136-.403 0-.266-.065-.396-.2-.396-1.468 0-2.546-.11-3.235-.33-.688-.228-1.149-.657-1.396-1.3-.247-.649-.39-1.636-.435-2.967V7.363c.046-1.331.188-2.318.435-2.96.247-.644.708-1.098 1.396-1.365.689-.266 1.767-.402 3.234-.402.136 0 .201-.13.201-.403 0-.266-.065-.396-.2-.396l-3 .065c-1.865.091-3.462.136-4.793.136-1.156 0-2.662-.045-4.533-.136l-3.13-.065c-.13 0-.188.13-.162.396.02.273.078.403.163.403 1.467 0 2.551.123 3.266.364.708.246 1.195.681 1.467 1.298.267.624.396 1.604.396 2.935v30.838c.046 1.331-.065 2.318-.33 2.967-.267.643-.754 1.072-1.468 1.3-.708.22-1.818.33-3.331.33-.085 0-.13.13-.13.396Zm64.344-40.83c0-.267-.046-.397-.137-.397l-2.928.065c-1.422.091-2.552.136-3.396.136-.98 0-2.221-.045-3.734-.136l-2.396-.065c-.136 0-.201.13-.201.396 0 .273.065.403.2.403 1.82 0 3.15.532 3.994 1.597.845 1.065 1.267 2.708 1.267 4.929v26.643L65.354 5.298c-.67-.844-1.156-1.571-1.468-2.195-.305-.532-.539-.876-.695-1.032-.155-.156-.415-.234-.766-.234-.266 0-.734.02-1.402.065-.663.046-1.442.065-2.332.065-.974 0-1.753-.02-2.33-.065l-2.93-.065c-.136 0-.2.13-.2.396 0 .273.064.403.2.403 1.91 0 3.754.954 5.527 2.864v30.707c0 4.306-1.819 6.461-5.461 6.461-.13 0-.202.13-.202.396 0 .267.072.403.202.403 1.2 0 2.13-.02 2.798-.065l3.533-.071 3.526.071c.623.046 1.487.065 2.597.065.137 0 .201-.136.201-.403 0-.266-.064-.396-.2-.396-1.819 0-3.163-.532-4.027-1.597-.87-1.065-1.299-2.688-1.299-4.864V7.5l28.572 36.636c.136.175.357.266.669.266.175 0 .33-.039.467-.104.13-.065.195-.143.195-.234L90.6 9.162c0-4.35 1.845-6.526 5.526-6.526.091 0 .137-.13.137-.403Zm5.123 40.83c0 .267.072.403.202.403 1.376 0 2.467-.02 3.266-.065l4.46-.071 4.663.071c.714.046 1.734.065 3.065.065.091 0 .136-.136.136-.403 0-.266-.071-.396-.2-.396-1.468 0-2.546-.11-3.235-.33-.688-.228-1.155-.657-1.396-1.3-.247-.649-.39-1.636-.435-2.967V7.363c.046-1.331.188-2.318.435-2.96.24-.644.708-1.098 1.396-1.365.689-.266 1.767-.402 3.234-.402.13 0 .201-.13.201-.403 0-.266-.071-.396-.2-.396l-3 .065c-1.865.091-3.462.136-4.793.136-1.156 0-2.669-.045-4.533-.136l-3.13-.065c-.136 0-.188.13-.168.396.026.273.078.403.169.403 1.467 0 2.552.123 3.266.364.708.246 1.195.681 1.46 1.298.267.624.403 1.604.403 2.935v30.838c.046 1.331-.064 2.318-.33 2.967-.273.643-.76 1.072-1.468 1.3-.715.22-1.825.33-3.331.33-.091 0-.137.13-.137.396Zm30.507-29.506c-.838-1.286-1.26-2.773-1.26-4.461 0-1.91.597-3.533 1.799-4.864 1.194-1.33 2.928-2 5.194-2 2.04 0 3.773.578 5.195 1.734 1.422 1.156 2.507 2.5 3.26 4.033.76 1.532 1.266 2.96 1.532 4.292.046.182.189.246.436.201.246-.045.363-.156.363-.331l-.266-8.325c0-.493-.35-.89-1.065-1.201-1.156-.487-2.455-.864-3.896-1.13a23.26 23.26 0 0 0-4.227-.403c-2.221 0-4.319.39-6.3 1.17-1.973.772-3.57 1.96-4.791 3.558-1.221 1.604-1.831 3.532-1.831 5.798 0 1.819.422 3.41 1.266 4.76a12.785 12.785 0 0 0 3.097 3.435c1.221.929 2.896 2.065 5.026 3.396 2.22 1.377 3.961 2.552 5.227 3.526 1.267.98 2.358 2.215 3.267 3.702.909 1.487 1.363 3.253 1.363 5.292 0 2.578-.688 4.428-2.065 5.565-1.376 1.13-3.104 1.695-5.194 1.695-3.065 0-5.591-1.195-7.591-3.598-2-2.396-3.487-5.24-4.461-8.526-.046-.175-.202-.24-.468-.195-.266.04-.377.15-.338.332l.67 9.525c.09.397.168.676.233.832.065.155.208.298.435.435 1.24.753 2.76 1.35 4.559 1.798 1.798.442 3.584.663 5.363.663 4.26 0 7.637-1.078 10.124-3.228 2.487-2.155 3.733-4.987 3.733-8.493 0-1.955-.467-3.662-1.402-5.13a13.716 13.716 0 0 0-3.396-3.695c-1.332-1-3.13-2.188-5.396-3.565-2.13-1.246-3.819-2.33-5.059-3.266a12.967 12.967 0 0 1-3.136-3.331Zm33.305 29.506c0 .267.071.403.201.403 1.513 0 2.689-.02 3.533-.065l4.928-.071 5.13.071c.844.046 1.974.065 3.396.065.13 0 .202-.136.202-.403 0-.266-.072-.396-.202-.396-1.779 0-3.065-.11-3.863-.33-.8-.228-1.332-.65-1.598-1.267-.266-.623-.402-1.623-.402-3l-.13-30.708c.039-1.195.149-2.084.33-2.662.176-.578.52-.987 1.033-1.234.513-.24 1.344-.364 2.5-.364h1.461c2.935 0 5.13.819 6.598 2.461 1.46 1.643 2.195 4.046 2.195 7.195 0 .182.155.266.467.266.266 0 .403-.064.403-.2-.046-1.02 0-2.903.13-5.657.136-2.753.266-5.045.402-6.863.04-.176-.058-.28-.305-.299-.24-.026-.41.032-.494.169-.181.662-.603 1.104-1.266 1.331-.669.22-1.734.331-3.201.331l-4.662.065c-3.02.091-5.747.136-8.189.136-5.422 0-9.928-.07-13.526-.2-1.993 0-2.993-.468-2.993-1.397 0-.09-.059-.156-.169-.201a.953.953 0 0 0-.364-.065c-.227 0-.337.065-.337.195-.442 6.707-.773 10.857-1 12.454-.04.046 0 .104.136.169a.89.89 0 0 0 .396.097c.182 0 .273-.039.273-.13.396-3.24 1.396-5.694 2.993-7.357 1.598-1.668 3.754-2.5 6.461-2.5h1.468c1.688 0 2.805.267 3.364.8.552.532.811 1.642.766 3.33v30.838c.045 1.331-.091 2.312-.403 2.929-.311.623-.876 1.058-1.695 1.298-.824.247-2.097.37-3.83.37-.092 0-.137.13-.137.396Zm62.682-9.922c-.221 0-.331.065-.331.202-.806 2.662-2.065 4.805-3.8 6.428-1.733 1.617-3.687 2.429-5.863 2.429h-6.058c-1.422 0-2.48-.11-3.17-.331-.687-.221-1.148-.637-1.395-1.234-.247-.598-.364-1.546-.364-2.831V22.55h9.455c2.09 0 3.61.455 4.565 1.364.954.916 1.428 2.344 1.428 4.299 0 .175.15.266.435.266.293 0 .435-.09.435-.266l-.071-3.396a54.8 54.8 0 0 1-.065-3V16.227c.045-.182-.078-.266-.364-.266-.292 0-.435.084-.435.266.046 1.727-.376 2.96-1.266 3.695-.89.733-2.35 1.097-4.396 1.097h-9.72V7.299c.038-1.286.175-2.222.395-2.8.221-.577.67-.974 1.331-1.194.67-.228 1.754-.338 3.267-.338h4.46c2.222 0 4.085.72 5.598 2.169 1.507 1.441 2.442 3.364 2.799 5.76.084.136.24.2.46.2.274 0 .403-.064.403-.2l-.2-8.461c0-.397-.176-.598-.533-.598h-28.305c-.091 0-.137.13-.137.396 0 .273.065.403.201.403 1.468 0 2.54.123 3.228.364.688.246 1.169.681 1.435 1.298.266.624.422 1.604.467 2.935v30.838c0 1.377-.123 2.377-.37 3-.24.617-.708 1.039-1.396 1.266-.688.221-1.786.331-3.299.331-.13 0-.2.13-.2.396 0 .267.09.403.265.403h29.974c.403 0 .682-.078.838-.234.156-.156.234-.409.234-.766 0-3.597.195-6.59.597-8.993.046-.085 0-.163-.136-.234a.89.89 0 0 0-.396-.098Zm48.72 9.922c-.019-.266-.097-.396-.233-.396-1.773 0-3.63-.714-5.559-2.13-1.935-1.422-4.143-3.74-6.63-6.96-2.487-3.221-5.552-7.676-9.188-13.358 2.085-1.156 3.74-2.643 4.961-4.46 1.22-1.825 1.831-3.754 1.831-5.8 0-2.616-1.02-4.662-3.065-6.123-2.039-1.467-5.02-2.201-8.922-2.201-.935 0-2 .065-3.201.201-.487.046-1.188.091-2.097.13-.91.046-1.721.071-2.429.071-1.11 0-2.643-.045-4.597-.136l-3.332-.065c-.175 0-.266.13-.266.396 0 .273.091.403.266.403 1.598 0 2.767.123 3.5.364.728.246 1.228.681 1.494 1.298.266.624.422 1.604.467 2.935v30.838c-.045 1.286-.207 2.253-.5 2.896-.285.643-.83 1.091-1.63 1.331-.798.247-2 .37-3.597.37-.175 0-.253.13-.234.396.02.267.124.403.3.403 1.421 0 2.532-.02 3.33-.065l4.728-.071 4.733.071c.8.046 1.883.065 3.26.065.182 0 .26-.136.234-.403-.02-.266-.124-.396-.299-.396-1.506 0-2.617-.123-3.331-.37-.708-.24-1.188-.675-1.429-1.298-.246-.617-.39-1.598-.435-2.929l.065-15.85c.715.084 1.331.13 1.864.13 1.467 0 2.909-.176 4.331-.533 4.046 6.928 7.54 12.266 10.494 16.02 2.954 3.752 4.98 5.63 6.09 5.63h8.793c.182 0 .26-.137.233-.404Zm-28.805-22.311c-.714 0-1.733-.091-3.065-.266V7.363c.046-1.506.176-2.571.403-3.195.22-.623.571-1.013 1.065-1.168.487-.15 1.35-.228 2.597-.228 2.26 0 4.085.753 5.461 2.26 1.377 1.513 2.065 3.91 2.065 7.195 0 3.02-.656 5.195-1.967 6.526-1.312 1.337-3.494 2-6.559 2Z" class="text"/><path fill="#fff" d="M0 57.72h276.605v2.221H0z"/><path fill="#fdfdfd" d="M186.604 89.14c.22.28.52.423.902.423.37 0 .734-.143 1.085-.422.357-.286.76-.72 1.201-1.312.013-.026 0-.071-.052-.123-.052-.052-.104-.078-.15-.078-.025 0-.051.006-.064.026-.604.72-1.104 1.084-1.487 1.084a.534.534 0 0 1-.513-.33c-.104-.222-.156-.566-.156-1.02l.136-13.948c0-.026-.025-.065-.077-.11a.252.252 0 0 0-.17-.066h-.045l-2.708 1.331c-.058.033-.071.085-.045.156.032.078.071.11.117.11l.039-.019c.493-.24.876-.357 1.156-.357.46 0 .688.318.688.955l-.156 12.48c-.013.533.085.935.299 1.22Zm5.987 0c.208.28.5.423.89.423.37 0 .733-.143 1.084-.422.357-.286.753-.72 1.201-1.312.026-.026.02-.071-.032-.123a.24.24 0 0 0-.17-.078l-.045.026c-.616.72-1.123 1.084-1.506 1.084-.22 0-.39-.11-.487-.33-.104-.222-.156-.566-.156-1.02l.04-5.13c0-.578-.085-1-.267-1.266-.175-.267-.455-.403-.844-.403-.396 0-.786.15-1.176.448-.383.292-.792.734-1.22 1.312-.026.039-.026.09.013.143.039.052.084.078.142.078.033 0 .059-.02.091-.046.663-.74 1.182-1.11 1.552-1.11.461 0 .682.448.67 1.35l-.072 5.156c-.013.533.084.935.292 1.22ZM192 77.66c.156.15.377.221.656.221.266 0 .474-.071.623-.22.15-.15.221-.364.221-.643 0-.254-.071-.455-.22-.598-.15-.15-.358-.227-.624-.227-.28 0-.5.078-.656.227-.156.143-.234.344-.234.598 0 .279.078.493.234.642Zm10.35-4.071c-.35-.234-.792-.344-1.324-.344-.961 0-1.688.195-2.188.597-.494.403-.838 1.078-1.04 2.046-.2.96-.292 2.357-.279 4.195 0 .383-.11.642-.33.785-.221.143-.637.215-1.247.215-.046 0-.065.038-.065.13 0 .09.032.136.09.136.5 0 .858.026 1.065.078.208.052.345.156.423.305.071.156.123.435.155.838l.24 7.837c.046.961.072 1.74.072 2.331 0 .929-.052 1.552-.15 1.864-.09.312-.266.468-.519.468a.548.548 0 0 1-.39-.137 1.767 1.767 0 0 1-.298-.376 1.726 1.726 0 0 0-.357-.442c-.117-.104-.286-.156-.507-.156-.24 0-.415.059-.526.175a.624.624 0 0 0-.162.449c0 .233.13.441.396.616.266.182.662.267 1.175.267.598 0 1.059-.143 1.39-.429.331-.292.578-.76.734-1.416.156-.649.234-1.545.234-2.681 0-.474-.007-.845-.026-1.11l-.267-8.286c.416.019.825.051 1.234.103.41.052.669.085.792.098.163.032.312-.04.455-.208.136-.169.214-.331.234-.48 0-.117-.072-.176-.202-.176-.96.072-1.805.117-2.532.13l-.046-1.396c-.013-.28-.02-.688-.02-1.22 0-3.228.585-4.838 1.754-4.838.234 0 .429.058.578.188.15.123.318.312.507.565.149.208.285.363.402.474a.6.6 0 0 0 .422.169c.429 0 .643-.195.643-.578 0-.299-.175-.559-.52-.786Zm6.734 14.597h-.039c-.623.487-1.396.734-2.311.734-1.065 0-1.896-.396-2.487-1.182-.591-.779-.89-1.83-.89-3.149v-.026c1.468-.201 2.701-.578 3.701-1.117.994-.539 1.494-1.136 1.494-1.786 0-.357-.156-.636-.461-.844-.312-.208-.76-.311-1.338-.311-.844 0-1.61.233-2.305.694a4.95 4.95 0 0 0-1.643 1.845 5.143 5.143 0 0 0-.604 2.435c0 .72.15 1.402.435 2.026.293.63.728 1.142 1.312 1.532.584.396 1.292.591 2.117.591 1.143 0 2.208-.416 3.201-1.24.026-.046.02-.091-.032-.137a.23.23 0 0 0-.15-.065Zm-5.058-6.22c.396-.578 1.006-.864 1.818-.864.416 0 .747.071.987.22.247.15.37.37.37.67 0 1.136-1.279 1.902-3.844 2.285.046-.96.266-1.733.669-2.311Zm12.188 7.24a3.422 3.422 0 0 0 1.663.402c.565 0 1.058-.123 1.493-.357.429-.24.76-.545.994-.935.24-.383.357-.792.357-1.22 0-.546-.182-1.013-.546-1.397-.363-.383-.902-.837-1.63-1.357-.649-.441-1.142-.837-1.467-1.175a1.651 1.651 0 0 1-.487-1.175c0-.637.377-.955 1.13-.955.33 0 .597.058.811.175.215.117.436.28.656.487.163.15.305.26.435.338.124.071.26.11.41.11a.593.593 0 0 0 .402-.136.436.436 0 0 0 .156-.35c0-.3-.214-.553-.636-.767a3.106 3.106 0 0 0-1.429-.324c-.701 0-1.325.181-1.89.551-.565.37-.844.89-.844 1.559 0 .532.169.974.513 1.331.338.357.844.753 1.507 1.201.681.442 1.194.851 1.545 1.221.344.37.52.825.52 1.377 0 .428-.124.766-.377 1.006-.253.247-.617.37-1.09.37-.41 0-.728-.078-.955-.233a3.987 3.987 0 0 1-.708-.682 3.845 3.845 0 0 0-.364-.41.544.544 0 0 0-.344-.123c-.15 0-.28.046-.39.124a.44.44 0 0 0-.168.37c0 .383.246.708.733.974Zm12.864-8.338c-.033-.039-.085-.052-.143-.052l-.89.065c-1.61.104-2.733.163-3.37.176V79.44c0-.046-.071-.072-.201-.072-.136 0-.195.026-.175.072-.033.487-.208.883-.526 1.188-.318.299-.734.455-1.254.455-.032 0-.045.038-.045.13 0 .09.026.136.065.136.357 0 .604.026.734.078.136.052.22.156.26.305.032.156.058.435.077.838l-.026 5.279c-.013.623.163 1.078.526 1.357.358.28.8.422 1.319.422.474 0 .941-.117 1.409-.344.467-.227.993-.604 1.59-1.124.027-.026.02-.065-.025-.11a.211.211 0 0 0-.156-.065h-.02c-.37.299-.714.52-1.02.675-.31.156-.681.234-1.11.234-.506 0-.876-.143-1.11-.428-.24-.293-.35-.747-.338-1.37l.026-5.572a38.28 38.28 0 0 1 3.195.201l.559.046c.162.026.318-.052.46-.247.15-.195.228-.37.228-.532.013-.046 0-.085-.04-.124Zm9.896 6.76c-.032 0-.052.006-.071.026-.604.72-1.098 1.084-1.487 1.084-.234 0-.403-.11-.507-.33-.104-.222-.156-.566-.156-1.02l.065-7.04c0-.032-.045-.045-.143-.045-.097 0-.143.013-.143.046-.019.279-.142.539-.383.772-.428-.409-.993-.616-1.707-.616-.825 0-1.63.337-2.41 1.006-.772.675-1.409 1.533-1.896 2.578-.487 1.045-.733 2.084-.733 3.117 0 .864.168 1.48.513 1.87.337.383.779.571 1.33.571.903 0 1.754-.435 2.566-1.318.805-.883 1.467-2.032 1.987-3.454l-.046 3.045c-.013.546.072.955.266 1.234.195.273.481.409.864.409.37 0 .734-.143 1.091-.422.357-.286.753-.72 1.195-1.312.032-.026.02-.071-.033-.123-.052-.052-.104-.078-.162-.078Zm-5.299.15c-.597.61-1.214.915-1.85.915-.474 0-.825-.182-1.059-.552-.227-.37-.344-.948-.344-1.734 0-.987.162-1.883.494-2.675.324-.792.76-1.41 1.305-1.85.552-.449 1.136-.67 1.753-.67.494 0 .896.163 1.22.48.332.32.494.728.494 1.228 0 .805-.188 1.656-.558 2.565-.37.916-.85 1.675-1.455 2.292Zm12.11-6.877a1.55 1.55 0 0 0-.954-.331c-.604 0-1.15.57-1.63 1.707-.48 1.143-.837 2.5-1.078 4.085v-2.526c.02-1.292-.078-2.15-.285-2.591-.208-.435-.507-.656-.89-.656-.37 0-.773.13-1.208.39-.441.26-.837.61-1.188 1.058-.02.026-.007.065.032.11.04.046.072.065.098.065.032 0 .045-.006.045-.02.487-.519.98-.778 1.468-.778.617 0 .922.805.909 2.422l-.046 3.883c0 .52-.006.915-.02 1.188-.019.273-.025.442-.025.5.02.046.058.078.123.098.065.026.195.032.39.032a.87.87 0 0 0 .422-.084c.104-.059.156-.137.156-.228.026-.915.156-1.98.39-3.194.227-1.215.512-2.254.85-3.117.344-.87.688-1.299 1.046-1.299.162 0 .324.097.487.286.013.013.058.052.123.11.065.059.15.117.247.169.09.052.214.078.363.078a.675.675 0 0 0 .435-.156.55.55 0 0 0 .189-.442c0-.285-.15-.539-.448-.76Zm7.663 6.948h-.02c-.402.344-.766.604-1.103.779-.332.182-.721.266-1.163.266-.532 0-.909-.143-1.123-.428-.214-.293-.318-.747-.318-1.37l.02-5.572c.681.013 1.551.091 2.616.22.182.033.338-.038.48-.207.144-.169.221-.331.234-.48 0-.117-.065-.176-.2-.176-1.507.091-2.553.143-3.13.156V79.44c0-.046-.066-.072-.202-.072-.13 0-.188.026-.175.072-.033.487-.202.883-.52 1.188-.318.299-.74.455-1.26.455-.058 0-.084.038-.084.13 0 .09.026.136.084.136.358 0 .604.026.747.078a.41.41 0 0 1 .266.305c.04.156.065.435.078.838l-.026 5.279c0 .623.176 1.078.513 1.357.344.28.786.422 1.331.422.488 0 .981-.123 1.468-.377.487-.253 1.039-.662 1.643-1.22.045-.033.039-.065-.013-.11-.052-.046-.098-.072-.143-.072Zm1.78 1.357a3.404 3.404 0 0 0 1.662.402c.565 0 1.058-.123 1.487-.357.428-.24.76-.545 1-.935.233-.383.357-.792.357-1.22 0-.546-.182-1.013-.546-1.397-.363-.383-.909-.837-1.63-1.357-.655-.441-1.142-.837-1.467-1.175a1.651 1.651 0 0 1-.487-1.175c0-.637.377-.955 1.13-.955.324 0 .597.058.811.175.215.117.436.28.656.487.163.15.305.26.429.338.13.071.266.11.415.11a.576.576 0 0 0 .397-.136.436.436 0 0 0 .155-.35c0-.3-.207-.553-.63-.767a3.133 3.133 0 0 0-1.435-.324c-.694 0-1.324.181-1.883.551-.565.37-.844.89-.844 1.559 0 .532.169.974.507 1.331.344.357.844.753 1.513 1.201.681.442 1.194.851 1.539 1.221.35.37.526.825.526 1.377 0 .428-.13.766-.377 1.006-.253.247-.617.37-1.09.37-.417 0-.735-.078-.955-.233a3.78 3.78 0 0 1-.708-.682 3.184 3.184 0 0 0-.37-.41.531.531 0 0 0-.345-.123c-.149 0-.279.046-.39.124-.11.084-.162.208-.162.37 0 .383.24.708.734.974Zm21.402-1.578c-.033 0-.052.006-.072.026-.603.72-1.097 1.084-1.487 1.084-.233 0-.402-.11-.506-.33-.104-.222-.156-.566-.156-1.02l.02-3.955c.013-1.02-.13-1.766-.442-2.234-.312-.46-.786-.694-1.422-.694-.948 0-1.747.467-2.396 1.409-.656.941-1.11 2.24-1.377 3.896l.11-12.37c0-.026-.032-.065-.09-.11a.26.26 0 0 0-.156-.066h-.046l-2.753 1.331c-.039.033-.052.078-.032.143.026.072.065.104.123.104h.045c.488-.24.884-.357 1.176-.357.487 0 .734.318.734.955l-.156 12.279c0 .383-.013.753-.033 1.097-.026.35-.032.546-.032.591.026.046.078.078.143.098.065.026.194.032.39.032.175 0 .311-.026.408-.084.098-.059.143-.137.143-.228.033-1.681.195-3.13.494-4.324.292-1.202.682-2.11 1.162-2.721.48-.617 1.013-.922 1.591-.922.961 0 1.435.863 1.416 2.597l-.046 4.065c0 1.091.39 1.643 1.156 1.643.37 0 .727-.136 1.065-.41.344-.278.753-.713 1.22-1.324.02-.026 0-.071-.051-.123-.052-.052-.098-.078-.143-.078Zm7.617.558h-.046c-.623.487-1.396.734-2.311.734-1.065 0-1.897-.396-2.487-1.182-.591-.779-.89-1.83-.89-3.149v-.026c1.468-.201 2.701-.578 3.701-1.117s1.494-1.136 1.494-1.786c0-.357-.15-.636-.461-.844-.312-.208-.76-.311-1.338-.311-.838 0-1.61.233-2.305.694a4.95 4.95 0 0 0-1.643 1.845 5.137 5.137 0 0 0-.597 2.435c0 .72.142 1.402.428 2.026.292.63.727 1.142 1.312 1.532.584.396 1.292.591 2.117.591 1.143 0 2.208-.416 3.201-1.24.026-.046.02-.091-.032-.137a.23.23 0 0 0-.143-.065Zm-5.065-6.22c.396-.578 1.006-.864 1.818-.864.416 0 .747.071.987.22.247.15.37.37.37.67 0 1.136-1.28 1.902-3.844 2.285.045-.96.266-1.733.669-2.311ZM291.59 80.9a1.55 1.55 0 0 0-.955-.331c-.604 0-1.149.57-1.63 1.707-.48 1.143-.837 2.5-1.077 4.085v-2.526c.013-1.292-.078-2.15-.286-2.591-.208-.435-.507-.656-.89-.656-.37 0-.772.13-1.208.39-.441.26-.837.61-1.188 1.058-.02.026-.006.065.033.11.032.046.071.065.097.065.032 0 .045-.006.045-.02.487-.519.974-.778 1.468-.778.617 0 .922.805.91 2.422l-.046 3.883c0 .52-.007.915-.02 1.188-.02.273-.026.442-.026.5.013.046.059.078.124.098.064.026.194.032.39.032a.87.87 0 0 0 .421-.084c.104-.059.156-.137.156-.228.026-.915.156-1.98.39-3.194.227-1.215.513-2.254.85-3.117.344-.87.689-1.299 1.046-1.299.162 0 .324.097.487.286.013.013.058.052.123.11.065.059.15.117.24.169.098.052.221.078.37.078a.675.675 0 0 0 .436-.156.55.55 0 0 0 .188-.442c0-.285-.15-.539-.448-.76Zm8.214 7.285h-.039c-.623.487-1.396.734-2.311.734-1.065 0-1.897-.396-2.487-1.182-.591-.779-.89-1.83-.89-3.149v-.026c1.467-.201 2.701-.578 3.701-1.117.994-.539 1.494-1.136 1.494-1.786 0-.357-.156-.636-.461-.844-.312-.208-.76-.311-1.338-.311-.844 0-1.61.233-2.305.694a4.95 4.95 0 0 0-1.643 1.845 5.143 5.143 0 0 0-.604 2.435c0 .72.15 1.402.435 2.026.292.63.727 1.142 1.312 1.532.584.396 1.292.591 2.117.591 1.143 0 2.207-.416 3.201-1.24.026-.046.02-.091-.032-.137a.23.23 0 0 0-.15-.065Zm-5.058-6.22c.396-.578 1.006-.864 1.818-.864.416 0 .747.071.987.22.247.15.37.37.37.67 0 1.136-1.28 1.902-3.844 2.285.045-.96.266-1.733.669-2.311Z" class="text"/></svg>